<mxfile host="app.diagrams.net" modified="2024-03-27T02:02:49.596Z" agent="Mozilla/5.0 (Windows NT 10.0; Win64; x64) AppleWebKit/537.36 (KHTML, like Gecko) Chrome/122.0.0.0 Safari/537.36 Edg/122.0.0.0" version="24.2.0" etag="FkHuLV-j1s5BIoGi981d" type="device">
  <diagram id="YkwvS8fJK93a4HRSjYrH" name="ページ1">
    <mxGraphModel dx="1452" dy="652" grid="1" gridSize="10" guides="1" tooltips="1" connect="1" arrows="1" fold="1" page="1" pageScale="1" pageWidth="827" pageHeight="1169" math="0" shadow="0">
      <root>
        <mxCell id="0" />
        <mxCell id="1" parent="0" />
        <mxCell id="n9v0E2HERlHshZRpmEzM-1" value="MySQL&lt;div&gt;IP:?&lt;/div&gt;&lt;div&gt;Port:3307&lt;/div&gt;" style="rounded=0;whiteSpace=wrap;html=1;" vertex="1" parent="1">
          <mxGeometry x="662" y="145" width="120" height="60" as="geometry" />
        </mxCell>
        <mxCell id="n9v0E2HERlHshZRpmEzM-2" value="データベース" style="text;html=1;align=center;verticalAlign=middle;whiteSpace=wrap;rounded=0;" vertex="1" parent="1">
          <mxGeometry x="662" y="115" width="88" height="30" as="geometry" />
        </mxCell>
        <mxCell id="n9v0E2HERlHshZRpmEzM-3" value="&lt;div&gt;JavaScript:express&lt;/div&gt;&lt;div&gt;IP:192.168.0.12&lt;/div&gt;&lt;div&gt;Port:4&lt;span style=&quot;background-color: initial;&quot;&gt;000&lt;/span&gt;&lt;/div&gt;" style="rounded=0;whiteSpace=wrap;html=1;" vertex="1" parent="1">
          <mxGeometry x="390" y="140" width="160" height="65" as="geometry" />
        </mxCell>
        <mxCell id="n9v0E2HERlHshZRpmEzM-4" value="データベース用通信サーバー" style="text;html=1;align=center;verticalAlign=middle;whiteSpace=wrap;rounded=0;" vertex="1" parent="1">
          <mxGeometry x="390" y="110" width="160" height="30" as="geometry" />
        </mxCell>
        <mxCell id="n9v0E2HERlHshZRpmEzM-7" value="" style="endArrow=classic;startArrow=classic;html=1;rounded=0;exitX=1;exitY=0.5;exitDx=0;exitDy=0;entryX=0;entryY=0.5;entryDx=0;entryDy=0;" edge="1" parent="1" source="n9v0E2HERlHshZRpmEzM-3" target="n9v0E2HERlHshZRpmEzM-1">
          <mxGeometry width="50" height="50" relative="1" as="geometry">
            <mxPoint x="570" y="275" as="sourcePoint" />
            <mxPoint x="620" y="225" as="targetPoint" />
          </mxGeometry>
        </mxCell>
        <mxCell id="n9v0E2HERlHshZRpmEzM-8" value="&lt;div&gt;JavaScript:React&lt;/div&gt;&lt;div&gt;IP:192.168.0.12&lt;/div&gt;&lt;div&gt;Port:3&lt;span style=&quot;background-color: initial;&quot;&gt;000&lt;/span&gt;&lt;/div&gt;" style="rounded=0;whiteSpace=wrap;html=1;" vertex="1" parent="1">
          <mxGeometry x="70" y="300" width="160" height="65" as="geometry" />
        </mxCell>
        <mxCell id="n9v0E2HERlHshZRpmEzM-9" value="フロントエンド" style="text;html=1;align=center;verticalAlign=middle;whiteSpace=wrap;rounded=0;" vertex="1" parent="1">
          <mxGeometry x="70" y="270" width="160" height="30" as="geometry" />
        </mxCell>
        <mxCell id="n9v0E2HERlHshZRpmEzM-10" value="" style="endArrow=classic;startArrow=classic;html=1;rounded=0;exitX=1;exitY=0.5;exitDx=0;exitDy=0;entryX=0;entryY=0.5;entryDx=0;entryDy=0;" edge="1" parent="1" source="n9v0E2HERlHshZRpmEzM-8" target="n9v0E2HERlHshZRpmEzM-3">
          <mxGeometry width="50" height="50" relative="1" as="geometry">
            <mxPoint x="560" y="183" as="sourcePoint" />
            <mxPoint x="672" y="185" as="targetPoint" />
          </mxGeometry>
        </mxCell>
        <mxCell id="n9v0E2HERlHshZRpmEzM-11" value="&lt;div&gt;Python:Flask&lt;/div&gt;&lt;div&gt;IP:127.0.0.1&lt;/div&gt;&lt;div&gt;Port:&lt;span style=&quot;background-color: initial;&quot;&gt;5000&lt;/span&gt;&lt;/div&gt;" style="rounded=0;whiteSpace=wrap;html=1;" vertex="1" parent="1">
          <mxGeometry x="390" y="395" width="160" height="65" as="geometry" />
        </mxCell>
        <mxCell id="n9v0E2HERlHshZRpmEzM-12" value="バックエンド" style="text;html=1;align=center;verticalAlign=middle;whiteSpace=wrap;rounded=0;" vertex="1" parent="1">
          <mxGeometry x="390" y="365" width="160" height="30" as="geometry" />
        </mxCell>
        <mxCell id="n9v0E2HERlHshZRpmEzM-13" value="" style="endArrow=classic;startArrow=classic;html=1;rounded=0;entryX=0;entryY=0.5;entryDx=0;entryDy=0;" edge="1" parent="1" target="n9v0E2HERlHshZRpmEzM-11">
          <mxGeometry width="50" height="50" relative="1" as="geometry">
            <mxPoint x="230" y="330" as="sourcePoint" />
            <mxPoint x="400" y="183" as="targetPoint" />
          </mxGeometry>
        </mxCell>
        <mxCell id="n9v0E2HERlHshZRpmEzM-14" value="client" style="shape=umlActor;verticalLabelPosition=bottom;verticalAlign=top;html=1;outlineConnect=0;" vertex="1" parent="1">
          <mxGeometry x="125" y="485" width="50" height="100" as="geometry" />
        </mxCell>
        <mxCell id="n9v0E2HERlHshZRpmEzM-15" value="" style="endArrow=classic;startArrow=classic;html=1;rounded=0;entryX=0.5;entryY=0;entryDx=0;entryDy=0;exitX=0.5;exitY=1;exitDx=0;exitDy=0;entryPerimeter=0;" edge="1" parent="1" source="n9v0E2HERlHshZRpmEzM-8" target="n9v0E2HERlHshZRpmEzM-14">
          <mxGeometry width="50" height="50" relative="1" as="geometry">
            <mxPoint x="240" y="340" as="sourcePoint" />
            <mxPoint x="400" y="438" as="targetPoint" />
          </mxGeometry>
        </mxCell>
      </root>
    </mxGraphModel>
  </diagram>
</mxfile>
